<?xml version="1.0" standalone="no"?>
<!DOCTYPE svg PUBLIC "-//W3C//DTD SVG 20010904//EN"
 "http://www.w3.org/TR/2001/REC-SVG-20010904/DTD/svg10.dtd">
<svg version="1.0" xmlns="http://www.w3.org/2000/svg"
 width="500.000000pt" height="500.000000pt" viewBox="0 0 500.000000 500.000000"
 preserveAspectRatio="xMidYMid meet">

<g transform="translate(0.000000,500.000000) scale(0.100000,-0.100000)"
fill="#000000" stroke="none">
<path d="M882 3018 c-9 -9 -12 -137 -12 -515 0 -580 -13 -523 115 -523 128 0
115 -58 115 529 0 455 -2 510 -16 515 -29 11 -189 7 -202 -6z"/>
<path d="M2192 2884 c-32 -22 -30 -71 3 -86 57 -26 113 45 65 84 -27 22 -39
23 -68 2z"/>
<path d="M2972 2884 c-32 -22 -30 -71 3 -86 57 -26 113 45 65 84 -27 22 -39
23 -68 2z"/>
<path d="M3530 2650 l0 -250 45 0 45 0 0 250 0 250 -45 0 -45 0 0 -250z"/>
<path d="M1738 2854 c-5 -4 -8 -108 -8 -231 l0 -225 123 4 c116 3 126 5 164
31 59 41 86 96 91 189 4 69 2 84 -21 131 -41 82 -82 101 -227 105 -63 2 -118
0 -122 -4z m208 -79 c44 -18 64 -63 64 -145 0 -112 -41 -160 -135 -160 l-45 0
0 160 0 160 40 0 c22 0 56 -7 76 -15z"/>
<path d="M618 2820 c-17 -10 -18 -41 -18 -416 l0 -404 26 -10 c14 -6 63 -10
110 -10 134 0 124 -34 124 428 0 226 -4 393 -10 402 -11 19 -205 27 -232 10z"/>
<path d="M1196 2810 c-69 -12 -76 -16 -76 -47 0 -49 112 -768 121 -777 11 -12
156 7 171 22 9 9 -102 778 -117 802 -7 11 -28 11 -99 0z"/>
<path d="M2435 2741 c-76 -19 -108 -72 -81 -135 13 -30 27 -42 81 -66 48 -22
65 -34 65 -49 0 -27 -44 -35 -103 -17 -44 13 -47 13 -47 -4 0 -10 -3 -25 -6
-33 -8 -21 45 -37 122 -37 53 0 67 4 93 26 25 21 31 33 31 66 0 58 -14 76 -85
108 -73 33 -86 47 -59 67 18 14 69 13 105 -2 13 -5 18 1 21 30 3 30 1 36 -16
40 -53 10 -93 12 -121 6z"/>
<path d="M2761 2740 c-78 -18 -121 -80 -121 -173 0 -64 14 -99 55 -137 36 -33
148 -42 183 -13 15 13 20 24 16 40 -6 20 -11 22 -45 17 -79 -13 -119 23 -119
103 1 63 42 97 113 91 41 -3 42 -2 45 30 2 20 -2 34 -10 36 -33 11 -86 13
-117 6z"/>
<path d="M3283 2739 c-18 -5 -35 -14 -38 -19 -9 -15 -25 -12 -25 5 0 11 -11
15 -40 15 l-40 0 0 -245 0 -245 45 0 45 0 0 75 0 75 59 0 c73 0 117 27 149 90
27 55 28 120 3 177 -29 63 -89 91 -158 72z m52 -84 c20 -19 25 -34 25 -75 0
-74 -29 -119 -77 -120 -50 0 -53 6 -53 105 0 93 0 93 28 103 41 16 51 14 77
-13z"/>
<path d="M3813 2740 c-51 -12 -83 -38 -104 -83 -35 -79 -20 -175 35 -227 21
-19 40 -25 90 -28 35 -2 80 1 101 8 31 10 36 16 33 38 -2 20 -8 26 -23 25 -11
-2 -42 -4 -68 -5 -52 -2 -79 16 -92 59 -6 22 -4 22 97 25 l103 3 0 52 c-1 28
-7 63 -15 78 -24 45 -96 70 -157 55z m71 -76 c9 -8 16 -26 16 -40 0 -23 -3
-24 -59 -24 -56 0 -59 1 -54 23 13 52 64 74 97 41z"/>
<path d="M4127 2740 c-56 -11 -87 -44 -87 -95 0 -50 28 -83 86 -104 111 -39
75 -101 -39 -67 l-47 14 0 -34 c0 -42 24 -54 111 -54 79 0 115 19 130 69 18
59 -2 89 -83 129 -50 23 -68 37 -68 52 0 26 41 36 88 22 20 -6 37 -10 38 -9 1
1 5 16 8 34 6 25 4 32 -11 36 -40 11 -90 14 -126 7z"/>
<path d="M2180 2570 l0 -170 45 0 45 0 0 170 0 170 -45 0 -45 0 0 -170z"/>
<path d="M2960 2570 l0 -170 45 0 45 0 0 170 0 170 -45 0 -45 0 0 -170z"/>
<path d="M1703 2249 c14 -8 17 -25 17 -104 0 -78 -3 -95 -15 -95 -8 0 -15 -4
-15 -10 0 -5 18 -10 40 -10 22 0 40 5 40 10 0 6 -4 10 -10 10 -6 0 -10 42 -10
105 l0 105 -32 0 c-27 -1 -30 -2 -15 -11z"/>
<path d="M1804 2249 c-3 -6 -2 -15 4 -21 13 -13 32 -2 32 18 0 16 -26 19 -36
3z"/>
<path d="M1883 2249 c14 -8 17 -25 17 -112 l0 -102 48 -3 c36 -2 52 2 64 15
25 28 30 60 18 98 -13 39 -50 56 -82 36 -16 -10 -18 -7 -18 34 0 44 -1 45 -32
45 -27 -1 -30 -2 -15 -11z m113 -104 c13 -20 15 -33 8 -58 -8 -26 -15 -33 -42
-35 l-32 -3 0 48 c0 72 34 97 66 48z"/>
<path d="M1800 2180 c-10 -6 -11 -10 -2 -10 20 0 16 -110 -5 -126 -16 -12 -12
-13 32 -13 44 0 48 1 33 13 -14 10 -18 28 -18 80 0 68 -7 77 -40 56z"/>
<path d="M2065 2180 c-3 -5 -1 -10 4 -10 15 0 14 -113 -1 -128 -9 -9 -1 -12
36 -12 29 0 45 4 41 10 -3 6 -13 10 -21 10 -12 0 -15 12 -12 58 1 31 -1 63 -5
70 -10 14 -33 16 -42 2z"/>
<path d="M2133 2183 c-7 -2 -13 -9 -13 -14 0 -4 7 -6 15 -3 9 4 15 0 15 -10 0
-18 25 -22 35 -6 14 23 -22 46 -52 33z"/>
<path d="M2215 2176 c-11 -8 -16 -19 -12 -30 8 -19 27 -12 27 10 0 19 46 18
54 -2 11 -28 7 -33 -29 -40 -41 -7 -58 -25 -53 -56 2 -17 11 -24 31 -26 16 -2
34 2 42 8 9 7 15 8 20 0 8 -12 45 -14 45 -1 0 5 -7 11 -15 15 -11 4 -15 21
-15 59 0 29 -5 58 -12 65 -16 16 -60 15 -83 -2z m75 -89 c0 -19 -21 -37 -42
-37 -21 0 -25 35 -5 43 23 10 47 7 47 -6z"/>
<path d="M2365 2181 c-3 -5 -1 -12 5 -16 13 -8 13 -115 0 -115 -5 0 -10 -4
-10 -10 0 -5 18 -10 40 -10 22 0 40 5 40 10 0 6 -7 10 -15 10 -19 0 -21 90 -3
108 16 16 28 15 28 -3 0 -8 7 -15 15 -15 8 0 15 7 15 15 0 35 20 10 46 -55 23
-58 25 -74 16 -95 -11 -25 -32 -34 -32 -15 0 6 -7 10 -16 10 -23 0 -13 -34 12
-38 28 -4 46 20 89 121 21 48 41 87 46 87 5 0 9 5 9 10 0 6 -13 10 -30 10 -29
0 -40 -13 -21 -24 10 -7 -17 -86 -29 -86 -12 0 -41 85 -30 88 5 2 10 8 10 13
0 15 -113 7 -132 -9 -16 -14 -18 -13 -18 1 0 18 -25 23 -35 8z"/>
</g>
</svg>
